<?xml version="1.0" encoding="UTF-8"?>
<svg version="1.1" xmlns="http://www.w3.org/2000/svg" width="1728" height="1920">
<path d="M0 0 C570.24 0 1140.48 0 1728 0 C1728 633.6 1728 1267.2 1728 1920 C1157.76 1920 587.52 1920 0 1920 C0 1286.4 0 652.8 0 0 Z " fill="#FEFEFE" transform="translate(0,0)"/>
<path d="M0 0 C65.92386823 -0.05142907 131.84773883 -0.09912607 197.7716217 -0.12702942 C198.74763259 -0.12744359 199.72364347 -0.12785776 200.72923044 -0.12828448 C221.94161504 -0.13726363 243.15399985 -0.14557412 264.36638498 -0.15319599 C274.76924042 -0.15693793 285.17209581 -0.1608276 295.57495117 -0.16479492 C296.6101491 -0.1651872 297.64534702 -0.16557948 298.71191458 -0.16598364 C332.25335219 -0.17876303 365.79477462 -0.20129349 399.33620304 -0.22889166 C433.81023396 -0.2572056 468.28425649 -0.27566008 502.75829884 -0.28174497 C507.62979062 -0.28260941 512.50128238 -0.28358632 517.37277412 -0.28463173 C518.33153437 -0.284834 519.29029461 -0.28503627 520.27810819 -0.28524467 C535.69883498 -0.28878701 551.11953576 -0.3026936 566.54025195 -0.3204961 C582.05094386 -0.33818056 597.56161005 -0.34489824 613.07231169 -0.34050413 C622.28251649 -0.33822596 631.49262697 -0.34427378 640.7028147 -0.36239263 C646.86377122 -0.37368244 653.02466632 -0.37396288 659.18562715 -0.36549544 C662.69059629 -0.36098745 666.19538769 -0.361072 669.7003374 -0.37464955 C687.35203283 -0.43105765 704.15501177 -0.05647657 720.9375 6.0625 C721.7617749 6.35850098 722.5860498 6.65450195 723.43530273 6.95947266 C737.04329401 12.06068279 749.20643294 19.25988509 760 29 C760.83660156 29.70640625 761.67320313 30.4128125 762.53515625 31.140625 C785.69147092 51.04002369 796.18027974 76.90139871 802 106 C802 348.22 802 590.44 802 840 C231.76 840 -338.48 840 -926 840 C-926 376.88438984 -926 376.88438984 -889 327 C-887.84682334 325.43290424 -886.69448 323.86519492 -885.54296875 322.296875 C-882.62799549 318.32951156 -879.70502745 314.36812623 -876.77929688 310.40869141 C-871.51192275 303.27807764 -866.25597362 296.13901929 -861 289 C-860.5143457 288.3404834 -860.02869141 287.6809668 -859.52832031 287.00146484 C-854.10484502 279.63290131 -848.72225712 272.23657977 -843.375 264.8125 C-838.33222091 257.8112081 -833.21575791 250.87347941 -828 244 C-826.17928796 246.73106806 -825.59967696 248.06980396 -824.921875 251.1484375 C-824.73367188 251.97867432 -824.54546875 252.80891113 -824.3515625 253.66430664 C-824.05378906 255.00609985 -824.05378906 255.00609985 -823.75 256.375 C-821.99399616 263.9854519 -820.11670958 271.54391455 -818 279.0625 C-817.77538086 279.88089355 -817.55076172 280.69928711 -817.31933594 281.54248047 C-815.70210128 287.20280175 -813.5965185 292.55072447 -811.28515625 297.9621582 C-810.06192925 300.85361214 -808.90901628 303.76158869 -807.78125 306.69140625 C-804.27043486 315.74791389 -800.7074908 324.7263418 -796.42578125 333.44921875 C-796.12537933 334.06185074 -795.82497742 334.67448273 -795.51547241 335.30567932 C-794.04320998 338.29312099 -792.54799847 341.26543796 -791.02734375 344.22875977 C-790.48851562 345.30311279 -789.9496875 346.37746582 -789.39453125 347.484375 C-788.90831299 348.43022461 -788.42209473 349.37607422 -787.92114258 350.35058594 C-786.57344753 354.22686123 -787.44168376 356.6986937 -789.015625 360.3671875 C-789.42296875 361.19476562 -789.8303125 362.02234375 -790.25 362.875 C-793.42451108 369.74548364 -795.92223358 376.73289352 -798 384 C-798.20044922 384.69077637 -798.40089844 385.38155273 -798.60742188 386.09326172 C-807.99399052 420.0157053 -801.8329065 456.46530182 -785.359375 487.0625 C-779.47440521 497.38255083 -772.16750811 506.40546548 -764 515 C-763.45093994 515.58418701 -762.90187988 516.16837402 -762.33618164 516.77026367 C-758.20939032 521.04441952 -753.81990997 524.56382967 -748.9375 527.9375 C-748.19508057 528.45328613 -747.45266113 528.96907227 -746.68774414 529.50048828 C-735.06949546 537.47474693 -723.35573416 543.53873586 -710 548 C-709.1028125 548.30679688 -708.205625 548.61359375 -707.28125 548.9296875 C-674.58110746 558.96738948 -636.50617177 555.39559421 -606.234375 539.609375 C-597.20276723 534.60261506 -588.94739295 528.56854199 -581 522 C-580.18015625 521.33355469 -579.3603125 520.66710938 -578.515625 519.98046875 C-572.55467568 514.93421682 -567.76158763 509.16958397 -563 503 C-562.01386719 501.77216797 -562.01386719 501.77216797 -561.0078125 500.51953125 C-538.79198584 471.74602082 -531.13072968 434.38143019 -535.3984375 398.66552734 C-536.46435943 392.30791797 -538.06679426 386.14542497 -540 380 C-540.22993652 379.26265625 -540.45987305 378.5253125 -540.69677734 377.765625 C-550.87054609 346.20030143 -572.5339239 320.73396097 -601 304 C-602.98131556 303.00234707 -604.9833234 302.0602163 -606.9909668 301.11694336 C-615.79832985 296.91154625 -619.62295447 291.66789104 -624 283 C-624.74174888 281.7015272 -625.49333616 280.40863255 -626.25390625 279.12109375 C-632 269.38098981 -632 269.38098981 -632 267 C-625.90001359 268.4733018 -620.08447898 270.31177045 -614.25 272.625 C-592.26203211 281.10852522 -569.42404797 286.35112118 -546.26196289 290.36499023 C-543.8777219 290.82913295 -541.51006704 291.3808595 -539.15673828 291.98242188 C-531.1798888 294.01535235 -522.95729214 294.94654619 -514.8125 296.0625 C-513.82876404 296.19795227 -512.84502808 296.33340454 -511.83148193 296.47296143 C-486.63865842 299.85407028 -461.38249727 300.03594288 -436 300 C-436.34933594 300.75925781 -436.69867188 301.51851562 -437.05859375 302.30078125 C-437.51363281 303.29464844 -437.96867187 304.28851562 -438.4375 305.3125 C-439.11619141 306.79169922 -439.11619141 306.79169922 -439.80859375 308.30078125 C-441.33335001 311.75522904 -442.12520431 314.42943967 -442.13701439 318.1747036 C-442.14208893 319.02957497 -442.14716347 319.88444634 -442.15239179 320.76522291 C-442.15288955 321.70479011 -442.15338731 322.64435731 -442.15390015 323.61239624 C-442.1582824 324.61034104 -442.16266465 325.60828584 -442.1671797 326.63647139 C-442.1805849 329.996419 -442.18675054 333.35634037 -442.19287109 336.71630859 C-442.20077094 339.11927408 -442.20903981 341.52223838 -442.21765137 343.92520142 C-442.24162647 351.14987817 -442.25680526 358.3745567 -442.26971143 365.59925932 C-442.27342454 367.64130777 -442.2773977 369.68335554 -442.2814641 371.72540331 C-442.30670957 384.4156244 -442.32875534 397.1058466 -442.34119225 409.79608727 C-442.3441218 412.73564025 -442.34708348 415.6751932 -442.35009766 418.61474609 C-442.35121673 419.71062313 -442.35121673 419.71062313 -442.35235842 420.8286391 C-442.3649949 432.64701676 -442.3981943 444.46524339 -442.43989949 456.28355055 C-442.48240242 468.42795255 -442.50589719 480.57227745 -442.51111281 492.7167536 C-442.51451825 499.53094145 -442.52616978 506.34489362 -442.55921555 513.15900803 C-442.59028466 519.57599046 -442.5955861 525.99267557 -442.58383179 532.40972519 C-442.58361153 534.75861643 -442.59187622 537.107527 -442.60948563 539.45635223 C-442.97869365 559.6246254 -442.97869365 559.6246254 -433.75 577.0625 C-426.83194829 583.03043302 -420.2181886 584.63099763 -411.15234375 584.32421875 C-404.35351297 583.62495858 -398.21030831 581.51560053 -393 577 C-386.32299026 567.93366815 -383.5498902 558.95555993 -383.56762695 547.79858398 C-383.55233948 546.33357704 -383.55233948 546.33357704 -383.53674316 544.838974 C-383.50677821 541.64128764 -383.49737244 538.44390166 -383.48828125 535.24609375 C-383.47142235 533.01692217 -383.45327049 530.78776003 -383.43388367 528.55860901 C-383.3865093 522.71437529 -383.35661864 516.87017986 -383.33044434 511.02581787 C-383.30057539 505.05294235 -383.25406683 499.08019852 -383.20898438 493.10742188 C-383.12309417 481.40501698 -383.0556854 469.70258489 -383 458 C-378.66407512 457.9725916 -374.3281728 457.95605202 -369.9921875 457.94140625 C-368.77039795 457.93355103 -367.5486084 457.9256958 -366.28979492 457.91760254 C-349.2660232 457.87448255 -337.93722807 461.59516792 -325.3125 473.1875 C-310.89165486 488.73939182 -301.13918468 508.96999427 -290.65332031 527.19287109 C-278.02230426 549.53074016 -278.02230426 549.53074016 -264 571 C-263.38511719 571.90878906 -263.38511719 571.90878906 -262.7578125 572.8359375 C-258.77711781 578.24419166 -252.29112962 581.90295679 -246 584 C-235.36397584 584.84368982 -226.69993163 583.88514794 -218.125 577.25 C-213.27989839 572.75913931 -210.18068959 566.34074974 -209.82421875 559.75 C-210.79730767 538.9907697 -225.21853555 517.14642539 -236 500 C-236.99773437 498.40671875 -236.99773437 498.40671875 -238.015625 496.78125 C-248.27247087 480.93734175 -262.64239382 459.67880309 -280 451 C-280 450.34 -280 449.68 -280 449 C-279.20903931 448.74476563 -279.20903931 448.74476563 -278.40209961 448.484375 C-254.66700276 440.73666243 -235.4379504 431.52350583 -223 409 C-222.57203125 408.26652344 -222.1440625 407.53304688 -221.703125 406.77734375 C-212.20409116 388.40036674 -212.72781485 363.66836788 -218.25927734 344.26074219 C-221.54961417 334.21838261 -226.9003811 324.82214649 -234 317 C-234.60328125 316.31679687 -235.2065625 315.63359375 -235.828125 314.9296875 C-252.77067538 296.81631046 -277.62320772 291.86958999 -301.38674927 290.85546875 C-310.31843637 290.58365095 -319.25259811 290.48039419 -328.1875 290.375 C-330.89520851 290.33769434 -333.60287657 290.29778337 -336.31054688 290.2578125 C-342.87359937 290.16288273 -349.43672027 290.07754738 -356 290 C-356 289.67 -356 289.34 -356 289 C-355.21689453 288.82460693 -354.43378906 288.64921387 -353.62695312 288.46850586 C-325.90164335 282.2230278 -298.13439328 275.36919934 -272 264 C-270.12587004 263.22705374 -268.25084001 262.45628689 -266.375 261.6875 C-219.36252339 242.04782309 -176.0044179 215.80797137 -137 183 C-136.43651855 182.52675293 -135.87303711 182.05350586 -135.29248047 181.56591797 C-126.14472487 173.87024457 -126.14472487 173.87024457 -117.55859375 165.5625 C-115.84067829 163.84027899 -114.03584357 162.26865727 -112.1875 160.6875 C-105.24878899 154.69008699 -98.8482273 148.14341604 -92.89453125 141.171875 C-91.02606894 139.02988521 -89.09717598 136.9530619 -87.15405273 134.87890625 C-81.15967501 128.45821998 -75.71203604 121.71740801 -70.36181641 114.75585938 C-69.04395613 113.05667488 -67.70502889 111.3771996 -66.35546875 109.703125 C-41.20495322 78.42104418 -21.69193354 43.43854056 -3.81347656 7.6340332 C-3.44537872 6.89732643 -3.07728088 6.16061966 -2.69802856 5.40158844 C-1.79847742 3.60116301 -0.89920958 1.80059604 0 0 Z " fill="#000000" transform="translate(926,1080)"/>
<path d="M0 0 C2.31108427 -0.00571236 4.62216572 -0.01267995 6.9332428 -0.02079773 C13.16840548 -0.03864142 19.40342678 -0.03757821 25.63860726 -0.03185534 C30.85513154 -0.02875294 36.07162908 -0.0348671 41.28814954 -0.04089409 C54.29518976 -0.05570578 67.30215095 -0.05215001 80.30919083 -0.04003078 C91.58563323 -0.03008522 102.86191185 -0.04306984 114.13832901 -0.06696498 C125.74861889 -0.09138049 137.35882574 -0.10055945 148.96914071 -0.09431225 C155.47504153 -0.09094551 161.98080681 -0.09334017 168.48668861 -0.11056328 C174.5993447 -0.12604216 180.71168753 -0.12206602 186.82433128 -0.10325813 C189.0632102 -0.09957597 191.3021124 -0.10266977 193.54096985 -0.11314392 C196.60456132 -0.12637963 199.66711939 -0.11478322 202.73066711 -0.09715271 C203.6095707 -0.10675772 204.48847429 -0.11636272 205.39401132 -0.12625879 C212.92221892 -0.03753494 219.22380552 2.18399961 225.60424805 6.15405273 C231.51292606 12.23155012 234.19884504 18.44074782 234.11303711 26.8762207 C233.41202655 34.57348713 231.143522 42.01579878 229.16674805 49.46655273 C228.2942008 52.8102246 227.42905488 56.15578581 226.56518555 59.50170898 C226.34179504 60.36254089 226.11840454 61.2233728 225.88824463 62.11029053 C224.09553301 69.07429178 222.46042518 76.0689428 220.86206055 83.07983398 C218.11348809 95.12669898 215.17314439 107.11831749 212.15527344 119.10028076 C211.26022269 122.65422945 210.36841445 126.20897968 209.47729492 129.76391602 C207.26621852 138.58192001 205.04992221 147.3986101 202.83374023 156.21533203 C200.94973721 163.71141252 199.06781992 171.20801111 197.18847656 178.70526123 C196.32320058 182.15370285 195.45502629 185.60140528 194.58666992 189.04907227 C191.87636607 199.84117055 189.25088051 210.6452045 186.77612305 221.49389648 C184.13596394 233.06367655 181.28153429 244.56961952 178.32202148 256.06152344 C177.5248185 259.15729509 176.73217154 262.25420832 175.94018555 265.35131836 C175.42741849 267.35203446 174.91440738 269.35268803 174.40112305 271.35327148 C174.05111237 272.7188343 174.05111237 272.7188343 173.69403076 274.11198425 C168.24208129 295.26770232 159.15688633 307.0746295 140.95776367 318.96411133 C137.23553558 321.43860426 133.61535588 324.05549857 129.97924805 326.65405273 C113.72755174 338.15330911 101.41445435 346.00307446 80.84368896 342.9692688 C72.7763071 341.54234678 64.78720053 339.74576166 56.79174805 337.96655273 C54.2551318 337.41546933 51.71818065 336.86592534 49.1809082 336.31787109 C42.88108426 334.95295186 36.58580403 333.5683102 30.29187012 332.17651367 C25.11435146 331.03385898 19.93353734 329.90647837 14.75268555 328.77905273 C7.21651315 327.13663867 -0.31577637 325.47736268 -7.84596252 323.80773926 C-12.43331603 322.79209233 -17.02403966 321.79386455 -21.6184082 320.81030273 C-22.70105957 320.57819092 -23.78371094 320.3460791 -24.89916992 320.10693359 C-26.79733402 319.70128878 -28.69603562 319.29814433 -30.59545898 318.8984375 C-34.90931759 317.97490355 -39.04754654 316.90298215 -43.20825195 315.40405273 C-43.26432617 316.26450195 -43.26432617 316.26450195 -43.3215332 317.14233398 C-44.42414539 331.38981304 -47.15458908 345.38917169 -50.01538086 359.36962891 C-52.27066386 370.49960773 -54.30413551 381.66849878 -56.33325195 392.84155273 C-56.50319672 393.77450165 -56.67314148 394.70745056 -56.84823608 395.66867065 C-58.70682728 405.88031424 -60.53468374 416.09412453 -62.17410278 426.34361267 C-66.44175139 452.62720548 -66.44175139 452.62720548 -77.35668945 461.15014648 C-85.14826706 466.42672119 -94.11484337 466.52762949 -103.20825195 465.40405273 C-111.91953493 463.62996802 -120.40370467 460.87817616 -128.89575195 458.27905273 C-131.14970552 457.60515519 -133.40426126 456.93326831 -135.65942383 456.26342773 C-140.08468081 454.94674382 -144.50676327 453.62012533 -148.92675781 452.28588867 C-157.19839875 449.79691557 -165.50420714 447.43154045 -173.81600952 445.08087158 C-177.61605112 444.00575489 -181.41404174 442.92344703 -185.2121582 441.84155273 C-186.64770499 441.43269825 -188.08325186 441.02384408 -189.51879883 440.61499023 C-190.22125732 440.41486328 -190.92371582 440.21473633 -191.64746094 440.00854492 C-193.06464449 439.60507861 -194.48196267 439.20208488 -195.89941406 438.79956055 C-207.70333857 435.44667907 -219.46194353 431.95332991 -231.20825195 428.40405273 C-231.20301514 429.29181396 -231.19777832 430.1795752 -231.19238281 431.09423828 C-231.13215362 443.41835053 -231.1554187 455.74176254 -231.19580078 468.06591797 C-231.20532567 471.15462106 -231.21182876 474.24331753 -231.21679688 477.33203125 C-231.23384429 487.60787466 -231.27032908 497.88328866 -231.34195042 508.1589098 C-231.37500149 512.97191682 -231.39956172 517.78462155 -231.40353394 522.5977478 C-231.40779996 527.22057428 -231.43625883 531.84267891 -231.48162079 536.46527863 C-231.49448324 538.18620855 -231.49902774 539.90722489 -231.49442291 541.62819672 C-231.47168289 552.62352506 -231.64890325 563.93688032 -239.22697449 572.75242615 C-245.77609513 579.02968451 -252.56416005 579.85878482 -261.38012695 579.72045898 C-267.20913435 579.23867368 -272.57581537 577.69347136 -278.15844727 576.00708008 C-281.83846964 574.92446273 -285.55721929 573.98891953 -289.27075195 573.02905273 C-295.24626712 571.46611385 -301.2084963 569.86026914 -307.16308594 568.21948242 C-317.01166269 565.50591048 -326.89084085 562.96206587 -336.80859375 560.51367188 C-343.04088214 558.9679261 -349.21125419 557.28465208 -355.37231445 555.47436523 C-363.70551278 553.14921621 -372.12455688 551.13890362 -380.52368164 549.06713867 C-384.08710751 548.18697637 -387.64783052 547.29628245 -391.20825195 546.40405273 C-391.19665039 547.10272461 -391.18504883 547.80139648 -391.1730957 548.52124023 C-391.16407227 549.43131836 -391.15504883 550.34139648 -391.14575195 551.27905273 C-391.13415039 552.18397461 -391.12254883 553.08889648 -391.1105957 554.02124023 C-391.20825195 556.40405273 -391.20825195 556.40405273 -392.20825195 558.40405273 C-392.46105642 559.88001131 -392.67062568 561.3635173 -392.85668945 562.84936523 C-392.9752832 563.76331055 -393.09387695 564.67725586 -393.21606445 565.61889648 C-393.45394168 567.50420006 -393.69097468 569.38961042 -393.92700195 571.27514648 C-394.65581152 576.88077752 -395.56879692 582.41269205 -396.64575195 587.96264648 C-398.40321225 597.04082991 -399.62359429 606.17700015 -400.83325195 615.34155273 C-401.25816012 618.55966301 -401.68849062 621.7769774 -402.12231445 624.99389648 C-402.2171109 625.72599838 -402.31190735 626.45810028 -402.40957642 627.21238708 C-403.09541849 632.29121927 -403.09541849 632.29121927 -404.20825195 633.40405273 C-404.67188937 636.23600022 -405.07905302 639.06032554 -405.45825195 641.90405273 C-405.72256483 643.81439099 -405.98828935 645.72453425 -406.25512695 647.63452148 C-406.40401367 648.70105957 -406.55290039 649.76759766 -406.70629883 650.86645508 C-407.56801225 656.93952291 -408.4723611 663.00606319 -409.38586426 669.0715332 C-409.59711725 670.4771135 -409.80720256 671.88286989 -410.01599121 673.28881836 C-411.33869535 682.19292757 -412.85099765 691.02866577 -414.61547852 699.85668945 C-415.17154069 703.18435972 -415.37648269 706.34914569 -415.45825195 709.71655273 C-416.26108444 714.58619243 -418.13735371 716.6726005 -421.89355469 719.58764648 C-424.57730751 721.49549242 -427.31651436 723.2971083 -430.09838867 725.05834961 C-432.76963164 726.7621093 -435.36489418 728.5634958 -437.96459961 730.3737793 C-439.94312893 731.749495 -441.93190098 733.10924469 -443.9230957 734.46655273 C-448.62611323 737.68146763 -453.2935712 740.9463508 -457.95825195 744.21655273 C-458.79831787 744.8054126 -459.63838379 745.39427246 -460.50390625 746.00097656 C-462.21732774 747.20237856 -463.93062467 748.40395823 -465.64379883 749.60571289 C-469.82998317 752.54130255 -474.01922872 755.47251625 -478.20825195 758.40405273 C-483.17389733 761.87947228 -488.13920621 765.35536707 -493.1027832 768.83374023 C-494.74206718 769.98223331 -496.38139021 771.13067065 -498.02075195 772.27905273 C-499.23686157 773.13104248 -499.23686157 773.13104248 -500.47753906 774.00024414 C-505.04284902 777.19618435 -509.6144165 780.3828661 -514.19262695 783.56030273 C-515.20478271 784.26300293 -516.21693848 784.96570313 -517.25976562 785.68969727 C-519.19926224 787.03553461 -521.13947404 788.38034217 -523.08056641 789.72387695 C-528.79603152 793.68983528 -534.42383078 797.75020115 -539.99121094 801.92211914 C-542.20825195 803.40405273 -542.20825195 803.40405273 -544.20825195 803.40405273 C-544.09231689 804.1778125 -543.97638184 804.95157227 -543.85693359 805.7487793 C-543.31833804 809.38248244 -542.79456269 813.01818996 -542.27075195 816.65405273 C-542.08834961 817.86963867 -541.90594727 819.08522461 -541.71801758 820.33764648 C-539.24131751 837.71957791 -539.02655075 855.18515952 -539.08325195 872.71655273 C-539.08607681 874.05210709 -539.08607681 874.05210709 -539.08895874 875.41464233 C-539.13766662 895.1192926 -539.44998568 914.42261548 -542.78955078 933.88598633 C-543.26868227 936.76748034 -543.6939909 939.65520399 -544.12231445 942.54467773 C-545.25063692 949.91667124 -546.67551891 957.21862443 -548.14575195 964.52905273 C-548.39776367 965.8090918 -548.64977539 967.08913086 -548.90942383 968.40795898 C-550.39609824 975.83752882 -552.12949863 983.12021049 -554.20825195 990.40405273 C-554.67936789 992.16678958 -555.14939792 993.92981697 -555.6184082 995.69311523 C-568.70625482 1043.5548197 -589.24418137 1092.05974304 -619.2746582 1131.82983398 C-621.1108654 1134.27440074 -622.8632912 1136.76701431 -624.60864258 1139.27685547 C-633.00092369 1151.28471065 -642.50479697 1162.44236703 -652.20825195 1173.40405273 C-652.87421387 1174.16226318 -653.54017578 1174.92047363 -654.22631836 1175.70166016 C-659.84071711 1182.02941036 -665.71021022 1188.06073377 -671.70166016 1194.02783203 C-673.2759935 1195.59677634 -674.84486785 1197.17103832 -676.41333008 1198.74584961 C-681.83794927 1204.17474045 -687.32944103 1209.46367278 -693.20825195 1214.40405273 C-693.83562256 1214.93812744 -694.46299316 1215.47220215 -695.109375 1216.02246094 C-711.2777944 1229.71726958 -728.19914397 1242.23602398 -746.20825195 1253.40405273 C-746.83650879 1253.79399414 -747.46476563 1254.18393555 -748.11206055 1254.58569336 C-752.44026748 1257.25655535 -756.81004573 1259.85032696 -761.20825195 1262.40405273 C-761.86809082 1262.78883789 -762.52792969 1263.17362305 -763.20776367 1263.57006836 C-784.25428132 1275.76776557 -806.23296083 1285.56725689 -828.95703125 1294.16674805 C-831.15337936 1295.00260389 -833.34489209 1295.85126089 -835.53173828 1296.71166992 C-863.9755897 1307.87996257 -894.61937089 1313.41879007 -924.83325195 1317.27905273 C-925.63974182 1317.38260071 -926.44623169 1317.48614868 -927.27716064 1317.59283447 C-945.33742899 1319.87954706 -963.2657505 1320.63803444 -981.45825195 1320.65405273 C-982.4672757 1320.65572449 -983.47629944 1320.65739624 -984.51589966 1320.65911865 C-1000.05719604 1320.66065595 -1015.19858055 1319.96417301 -1030.60083008 1317.77124023 C-1032.84835117 1317.45473539 -1035.09263931 1317.17970962 -1037.34887695 1316.93530273 C-1086.39302435 1311.3179114 -1133.19049264 1294.05274192 -1177.20825195 1272.40405273 C-1177.89338645 1262.32496296 -1176.85864942 1252.99960788 -1174.95825195 1243.09155273 C-1174.75369385 1242.0076123 -1174.54913574 1240.92367188 -1174.33837891 1239.80688477 C-1172.91067498 1232.72396194 -1170.8925701 1226.10837986 -1168.20825195 1219.40405273 C-1167.76666748 1218.29549927 -1167.76666748 1218.29549927 -1167.31616211 1217.16455078 C-1153.36791106 1183.1079004 -1129.28397671 1152.2770801 -1101.4074707 1128.32983398 C-1099.86514024 1126.97926752 -1098.34877695 1125.59874034 -1096.8527832 1124.19702148 C-1088.77116861 1116.62891342 -1080.07756777 1110.01447102 -1071.20825195 1103.40405273 C-1070.55244141 1102.91227539 -1069.89663086 1102.42049805 -1069.22094727 1101.91381836 C-1060.09467518 1095.07727525 -1050.7407954 1088.65873913 -1041.20825195 1082.40405273 C-1040.2749707 1081.69764648 -1039.34168945 1080.99124023 -1038.38012695 1080.26342773 C-1034.22152973 1077.82562936 -1030.20835575 1077.04378949 -1025.52075195 1076.09155273 C-987.87196732 1067.69853248 -953.78478257 1046.20376863 -932.52075195 1013.59155273 C-916.4060618 988.02651658 -907.76131028 960.37271407 -907.77075195 930.09155273 C-907.7691507 928.98895111 -907.7691507 928.98895111 -907.76751709 927.86407471 C-907.80824812 908.27456601 -911.08088381 889.32473478 -919.20825195 871.40405273 C-919.50070801 870.75178711 -919.79316406 870.09952148 -920.09448242 869.42749023 C-937.50620396 831.23046851 -968.4253645 804.20626241 -1007.3918457 789.38452148 C-1034.59888477 779.52104972 -1065.21544336 777.67102359 -1093.20825195 785.40405273 C-1094.26157715 785.68490723 -1094.26157715 785.68490723 -1095.33618164 785.97143555 C-1121.11433642 792.96888122 -1142.85183724 806.15085337 -1162.20825195 824.40405273 C-1162.88243164 825.02538086 -1163.55661133 825.64670898 -1164.2512207 826.28686523 C-1184.95194198 846.037254 -1197.01323842 872.88633888 -1203.20825195 900.40405273 C-1203.39734131 901.20375488 -1203.58643066 902.00345703 -1203.78125 902.82739258 C-1205.43129515 910.60796184 -1205.54689805 918.33758915 -1205.52392578 926.25366211 C-1205.52078576 928.50481596 -1205.54423552 930.75462461 -1205.56958008 933.00561523 C-1205.63534533 948.27993455 -1203.2823269 963.40405037 -1197.95825195 977.77905273 C-1197.05907059 980.92618751 -1197.19265465 982.2975198 -1198.20825195 985.40405273 C-1200.4309082 987.83374023 -1200.4309082 987.83374023 -1203.27075195 990.27905273 C-1203.76953857 990.71467529 -1204.2683252 991.15029785 -1204.78222656 991.59912109 C-1206.24896907 992.87736657 -1207.72840022 994.14100724 -1209.20825195 995.40405273 C-1210.56370998 996.59007851 -1211.91804497 997.77739024 -1213.27075195 998.96655273 C-1213.91141602 999.5247168 -1214.55208008 1000.08288086 -1215.2121582 1000.65795898 C-1222.06267671 1006.65048692 -1228.74985897 1012.81153222 -1235.39575195 1019.02905273 C-1236.39348633 1019.96104492 -1236.39348633 1019.96104492 -1237.41137695 1020.91186523 C-1243.62606124 1026.74353717 -1249.63793833 1032.65450687 -1255.20043945 1039.11499023 C-1257.15138864 1041.33922414 -1259.14890948 1043.51477732 -1261.16162109 1045.68310547 C-1266.2869995 1051.21161342 -1271.21454568 1056.84683769 -1275.90063477 1062.75756836 C-1276.84117228 1063.94184487 -1277.78640517 1065.12239793 -1278.73461914 1066.30053711 C-1294.53562305 1085.95612732 -1307.94619152 1106.99273972 -1320.14575195 1129.02905273 C-1320.61907959 1129.88313721 -1321.09240723 1130.73722168 -1321.58007812 1131.6171875 C-1323.69420645 1135.47534678 -1325.72417673 1139.24864212 -1327.20825195 1143.40405273 C-1342.05721569 1129.20069612 -1352.51878858 1108.37650732 -1362.20825195 1090.40405273 C-1362.66699707 1089.55891113 -1363.12574219 1088.71376953 -1363.59838867 1087.84301758 C-1370.84311501 1074.44039328 -1377.32231943 1060.84590722 -1383.20532227 1046.79321289 C-1384.04342726 1044.79669501 -1384.90084713 1042.80829952 -1385.76293945 1040.82202148 C-1389.06074282 1033.17152734 -1391.67750397 1025.33260872 -1394.20825195 1017.40405273 C-1394.68198242 1015.93645508 -1394.68198242 1015.93645508 -1395.1652832 1014.43920898 C-1409.82973522 967.94977599 -1417.37470396 920.6592932 -1417.52075195 871.84155273 C-1417.52337036 870.98965363 -1417.52598877 870.13775452 -1417.52868652 869.26004028 C-1417.53746921 842.13627533 -1414.6317342 814.97957111 -1409.20825195 788.40405273 C-1408.99442871 787.32188477 -1408.78060547 786.2397168 -1408.56030273 785.12475586 C-1404.76703817 766.01119977 -1400.5678796 746.82759162 -1393.14135742 728.75366211 C-1392.03561955 725.96935513 -1391.12311189 723.15369893 -1390.23242188 720.29492188 C-1386.47710219 708.27196719 -1381.41368736 696.85801657 -1376.20825195 685.40405273 C-1375.62938232 684.12449707 -1375.62938232 684.12449707 -1375.03881836 682.8190918 C-1361.52199873 653.10676077 -1344.1088041 625.25111962 -1324.20825195 599.40405273 C-1323.7910791 598.85539551 -1323.37390625 598.30673828 -1322.9440918 597.74145508 C-1317.03322589 589.9734516 -1310.8396006 582.62746598 -1304.13012695 575.53686523 C-1302.02020818 573.30437262 -1300.00107059 571.01283685 -1298.0012207 568.68139648 C-1293.49378059 563.50184834 -1288.63422785 558.68428887 -1283.77075195 553.84155273 C-1282.41626953 552.48126953 -1282.41626953 552.48126953 -1281.03442383 551.09350586 C-1275.92026981 545.98675829 -1270.70474435 541.09450258 -1265.20825195 536.40405273 C-1264.15981472 535.47873649 -1263.11286235 534.55173424 -1262.06762695 533.62280273 C-1228.10908122 503.77416768 -1187.5031411 477.73135215 -1145.20825195 461.40405273 C-1143.70404916 460.78815101 -1142.20142648 460.16837554 -1140.70043945 459.54467773 C-1127.7310747 454.21142871 -1114.56782025 449.6578204 -1101.20825195 445.40405273 C-1100.00426758 445.01475586 -1098.8002832 444.62545898 -1097.55981445 444.22436523 C-1019.79727382 420.52343975 -931.15452941 421.84392998 -853.8137207 446.58374023 C-851.13256526 447.42788213 -848.44045849 448.21949571 -845.73950195 448.99780273 C-836.62579023 451.63068972 -827.8926208 454.55019908 -819.20825195 458.40405273 C-817.62777586 459.03624317 -816.04443856 459.6613299 -814.45825195 460.27905273 C-797.9561704 466.86934089 -782.16246783 474.62785901 -766.58325195 483.15405273 C-765.74181641 483.61392578 -764.90038086 484.07379883 -764.03344727 484.54760742 C-760.53375684 486.48123919 -757.18758793 488.38075244 -753.99731445 490.79467773 C-751.31794227 492.64189424 -751.31794227 492.64189424 -748.2512207 492.45092773 C-744.46138501 491.14710749 -741.63101902 489.10324521 -738.52075195 486.65405273 C-737.18956401 485.64210971 -735.85612375 484.6331245 -734.52075195 483.62670898 C-733.81950195 483.09706543 -733.11825195 482.56742187 -732.39575195 482.02172852 C-728.67704465 479.27171126 -724.84951625 476.68502782 -721.02075195 474.09155273 C-707.5168613 464.91405821 -694.17549999 455.50695241 -680.84570312 446.07910156 C-673.90033844 441.17379184 -666.91717619 436.32316349 -659.93432617 431.47143555 C-651.16174005 425.37545293 -642.40827539 419.2525001 -633.65991211 413.12182617 C-629.51038767 410.21443183 -625.35922889 407.30937272 -621.20825195 404.40405273 C-619.54157764 403.23739699 -617.87491097 402.07073033 -616.20825195 400.90405273 C-586.20825195 379.90405273 -556.20825195 358.90405273 -526.20825195 337.90405273 C-525.38349365 337.32671387 -524.55873535 336.749375 -523.70898438 336.15454102 C-522.03990688 334.98620306 -520.37079873 333.81790889 -518.70166016 332.6496582 C-514.57162858 329.75891785 -510.44210749 326.8674542 -506.3137207 323.97436523 C-497.45617552 317.76844186 -488.58863307 311.57726268 -479.70825195 305.40405273 C-466.406385 296.15648004 -453.12155828 286.88516212 -439.89575195 277.52905273 C-432.27030394 272.13559813 -424.60464404 266.80082046 -416.93432617 261.47143555 C-408.16174005 255.37545293 -399.40827539 249.2525001 -390.65991211 243.12182617 C-386.51038767 240.21443183 -382.35922889 237.30937272 -378.20825195 234.40405273 C-376.54157764 233.23739699 -374.87491097 232.07073033 -373.20825195 230.90405273 C-369.87491862 228.5707194 -366.54158529 226.23738607 -363.20825195 223.90405273 C-362.38349365 223.32671387 -361.55873535 222.749375 -360.70898438 222.15454102 C-359.03990688 220.98620306 -357.37079873 219.81790889 -355.70166016 218.6496582 C-351.57162858 215.75891785 -347.44210749 212.8674542 -343.3137207 209.97436523 C-334.39460493 203.72539366 -325.46426684 197.49306291 -316.52075195 191.27905273 C-309.15208006 186.15842956 -301.80109085 181.01443394 -294.47558594 175.83227539 C-280.96107148 166.27389512 -267.37434469 156.81860272 -253.78271484 147.37036133 C-245.06184719 141.30640984 -236.3585277 135.21763794 -227.65991211 129.12182617 C-223.51038767 126.21443183 -219.35922889 123.30937272 -215.20825195 120.40405273 C-213.54157764 119.23739699 -211.87491097 118.07073033 -210.20825195 116.90405273 C-186.87491862 100.5707194 -163.54158529 84.23738607 -140.20825195 67.90405273 C-139.38349365 67.32671387 -138.55873535 66.749375 -137.70898438 66.15454102 C-136.03990688 64.98620306 -134.37079873 63.81790889 -132.70166016 62.6496582 C-128.57162858 59.75891785 -124.44210749 56.8674542 -120.3137207 53.97436523 C-113.3606779 49.10287709 -106.4059183 44.2340534 -99.43481445 39.38842773 C-97.97277588 38.37208252 -97.97277588 38.37208252 -96.48120117 37.33520508 C-94.51501007 35.96960542 -92.54789382 34.60533677 -90.57983398 33.24243164 C-86.20035394 30.20501448 -81.83787981 27.15273898 -77.53637695 24.00561523 C-53.23058284 6.27449606 -29.8163886 -0.06694974 0 0 Z " fill="#000000" transform="translate(1449.208251953125,-0.404052734375)"/>
<path d="M0 0 C3.45681394 2.88067828 6.74889006 5.89048893 10 9 C10.63679688 9.57363281 11.27359375 10.14726563 11.9296875 10.73828125 C17.02429092 15.4819231 20.45540075 21.04791604 24 27 C24.70125 28.11375 25.4025 29.2275 26.125 30.375 C37.16691183 50.22188462 38.45375483 76.24781721 32.39453125 97.921875 C30.11150308 105.03523834 26.69013124 111.53231168 23 118 C22.46632813 118.98484375 21.93265625 119.9696875 21.3828125 120.984375 C11.77859353 137.51701064 -4.39843002 149.17344516 -22 156 C-23.13953125 156.44214844 -24.2790625 156.88429688 -25.453125 157.33984375 C-32.02025044 159.70977919 -37.40057133 161.10491041 -44.4375 161.375 C-56.81505837 162.26297206 -67.13214415 171.20297288 -77 178 C-77.90927246 178.61584961 -78.81854492 179.23169922 -79.75537109 179.86621094 C-95.55867546 190.56987784 -110.77805382 202.00089802 -125.20849609 214.49560547 C-126.54531678 215.61818506 -127.90665302 216.71169058 -129.27978516 217.78955078 C-137.26092048 224.10294189 -144.4136449 231.10815553 -151.58007812 238.31933594 C-153.62150377 240.37148541 -155.67341139 242.41271421 -157.7265625 244.453125 C-164.9414244 251.65990963 -171.75274494 258.92659901 -178 267 C-178.56895996 267.71494629 -179.13791992 268.42989258 -179.72412109 269.16650391 C-194.99767302 288.39146854 -209.8309241 309.82798987 -217.99609375 333.1484375 C-219.03095757 336.08793395 -220.24352344 338.89891253 -221.5 341.75 C-224.65908778 349.3357719 -226.95456652 357.05812146 -229 365 C-229.20044922 365.7321875 -229.40089844 366.464375 -229.60742188 367.21875 C-236.53820662 393.39666485 -235.83696743 425.89649591 -229 452 C-228.42535728 454.35244362 -227.85257075 456.70534114 -227.28125 459.05859375 C-223.98475115 472.8083862 -223.98475115 472.8083862 -219 486 C-218.34841815 487.615664 -217.70448083 489.23442283 -217.06640625 490.85546875 C-207.66990727 514.44241715 -195.86041619 536.74170598 -182 558 C-181.14160522 559.36499634 -181.14160522 559.36499634 -180.26586914 560.75756836 C-176.90814159 566.0120642 -176.90814159 566.0120642 -171.96484375 569.60546875 C-170.96582031 569.79753906 -169.96679688 569.98960937 -168.9375 570.1875 C-156.42967064 573.2893268 -146.47957614 579.38783606 -137 588 C-136.35546875 588.55171875 -135.7109375 589.1034375 -135.046875 589.671875 C-124.8882432 598.91531475 -116.47144557 615.28806768 -115 629 C-113.89575648 652.77358216 -116.49017688 673.13671321 -132.66796875 691.546875 C-146.36487325 705.95500905 -164.06262877 716.39035108 -184.34765625 717.37109375 C-205.00069605 717.81262045 -223.13618725 712.98558355 -239 699 C-239.73863281 698.35546875 -240.47726563 697.7109375 -241.23828125 697.046875 C-253.76283694 685.36594223 -263.05272402 668.3494325 -264.19287109 651.07836914 C-264.90776453 624.07489433 -264.90776453 624.07489433 -259 612 C-258.14535156 610.22496094 -258.14535156 610.22496094 -257.2734375 608.4140625 C-252.75429672 599.60506437 -245.53642658 587.83239573 -236 584 C-238.47655172 577.75253155 -241.71117753 572.06601573 -245.0625 566.25 C-264.08025622 532.83270765 -279.23457593 498.26485826 -289 461 C-289.25281738 460.06655762 -289.50563477 459.13311523 -289.76611328 458.17138672 C-294.01915692 441.84881883 -294.47771602 425.76947833 -294.5 409 C-294.50673737 407.43264099 -294.50673737 407.43264099 -294.51361084 405.83361816 C-294.54441231 388.19925712 -292.83919481 371.41965468 -288.1875 354.375 C-287.80283569 352.935802 -287.80283569 352.935802 -287.41040039 351.4675293 C-285.04478612 342.80754971 -282.21497729 334.37842566 -279 326 C-278.62488281 325.00742188 -278.24976563 324.01484375 -277.86328125 322.9921875 C-264.4818031 289.28025307 -243.2157786 256.94664131 -218.37890625 230.5546875 C-216.55378608 228.59470623 -214.81900004 226.61249511 -213.0859375 224.57421875 C-207.98576626 218.72234956 -202.44391529 213.29492776 -196.94848633 207.81811523 C-195.06671726 205.94170525 -193.19035262 204.06001031 -191.31445312 202.17773438 C-185.37988438 196.23952735 -179.43474941 190.4014049 -173 185 C-171.89321158 184.03927863 -170.78771526 183.07706643 -169.68359375 182.11328125 C-156.81584726 170.98399518 -143.51748688 160.47969483 -129.84082031 150.36328125 C-128.09539443 149.07064755 -126.35586716 147.7704353 -124.6171875 146.46875 C-123.62976563 145.7365625 -122.64234375 145.004375 -121.625 144.25 C-120.77164063 143.61578125 -119.91828125 142.9815625 -119.0390625 142.328125 C-117 141 -117 141 -115 141 C-116.65542796 137.7865222 -118.48750948 135.47357022 -121.125 133.0625 C-136.79240676 117.75868284 -143.96767822 95.93141746 -144.34204102 74.59838867 C-144.35291748 73.36967041 -144.36379395 72.14095215 -144.375 70.875 C-144.39614868 69.12376831 -144.39614868 69.12376831 -144.41772461 67.3371582 C-144.30131209 46.39322052 -135.63397383 25.30277045 -121.15234375 10.046875 C-113.77166935 3.02786704 -105.7719227 -2.84243434 -97 -8 C-96.05640625 -8.56654297 -96.05640625 -8.56654297 -95.09375 -9.14453125 C-65.71714404 -25.314549 -26.06195803 -20.05892275 0 0 Z " fill="#010101" transform="translate(447,858)"/>
<path d="M0 0 C0.33 0 0.66 0 1 0 C1.06993164 0.58789307 1.13986328 1.17578613 1.21191406 1.78149414 C3.23498841 18.45884738 6.16305569 33.54168897 13 49 C13.42925781 50.08667969 13.85851563 51.17335938 14.30078125 52.29296875 C19.4727856 65.18655705 26.6456465 76.64517213 35.6484375 87.22265625 C38.37195477 90.43930207 40.97036195 93.73985031 43.5625 97.0625 C46.70617295 101.08157827 49.86232537 105.08808957 53.0625 109.0625 C55.99193231 112.70946533 58.84997733 116.40644058 61.6875 120.125 C66.04865339 125.83275513 70.55651682 131.41131865 75.10107422 136.97363281 C79.64391485 142.54072133 84.09290299 148.17631034 88.51953125 153.8359375 C90.6607348 156.57269137 92.82441659 159.29044988 95 162 C99.56874789 167.69465113 104.0713853 173.44066861 108.57666016 179.18554688 C111.34213653 182.71093631 114.11082205 186.23380859 116.88085938 189.75561523 C119.14149377 192.63056983 121.39789787 195.50861871 123.64453125 198.39453125 C128.69009033 204.86445695 133.82732561 211.24474543 139.0625 217.5625 C144.10313399 223.64567065 148.99558958 229.81259249 153.78125 236.09765625 C157.11438706 240.45772815 160.5575111 244.72614079 164 249 C171.72561882 258.6210083 179.39078143 268.28673772 187 278 C190.25108315 282.14720071 193.50607625 286.29126704 196.76708984 290.43066406 C197.87685843 291.84325663 198.97987262 293.26114937 200.08203125 294.6796875 C205.38707222 301.44334463 211.11150812 307.74619548 217 314 C217.98419922 315.06541016 217.98419922 315.06541016 218.98828125 316.15234375 C225.04728085 322.49677802 232.00661885 327.73909555 239 333 C239.84739746 333.63856934 239.84739746 333.63856934 240.71191406 334.29003906 C264.23401706 351.87318911 291.22123957 367.25128682 319.296875 376.109375 C321.80923434 376.93714658 324.19514613 377.89613405 326.625 378.9375 C337.35414028 383.30863123 348.78101161 386.07915066 360.2421875 387.6015625 C362.64940207 387.94934704 364.90586724 388.42820525 367.25 389.0625 C371.49427633 390.12356908 375.65087074 390.6174377 380 391 C380 391.33 380 391.66 380 392 C254.6 392 129.2 392 0 392 C0 262.64 0 133.28 0 0 Z " fill="#FEFEFE" transform="translate(0,1528)"/>
<path d="M0 0 C7.94144988 5.77559992 13.00489904 12.86921449 18.00390625 21.21875 C19.31289836 23.358626 20.6228154 25.49793645 21.93359375 27.63671875 C22.5894043 28.71356934 23.24521484 29.79041992 23.92089844 30.89990234 C26.93320829 35.81349805 30.02672921 40.6740633 33.12890625 45.53125 C34.00023193 46.89854248 34.00023193 46.89854248 34.88916016 48.29345703 C38.80031123 54.4243608 42.74393888 60.53367489 46.70288086 66.63378906 C52.22078882 75.14570085 57.65067516 83.71371361 63.08935547 92.27636719 C73.65119736 108.90442387 84.25411348 125.50585583 94.87890625 142.09375 C96.23831747 144.21612264 97.59769254 146.33851843 98.95703125 148.4609375 C99.62742432 149.50765625 100.29781738 150.554375 100.98852539 151.6328125 C102.97827071 154.74120204 104.96576781 157.85102073 106.953125 160.9609375 C109.61131608 165.11921692 112.28214362 169.26902876 114.9609375 173.4140625 C116.24613473 175.41143197 117.53129265 177.40882673 118.81640625 179.40625 C119.41404785 180.32559326 120.01168945 181.24493652 120.62744141 182.19213867 C121.17319824 183.04267822 121.71895508 183.89321777 122.28125 184.76953125 C122.76070068 185.51114502 123.24015137 186.25275879 123.73413086 187.0168457 C124.85802448 189.05586533 125.43476394 190.81844395 125.87890625 193.09375 C126.53890625 193.09375 127.19890625 193.09375 127.87890625 193.09375 C127.87614087 192.21137224 127.87337549 191.32899448 127.87052631 190.41987801 C127.8042087 168.92749794 127.75459754 147.43513557 127.72346973 125.94267464 C127.70801559 115.54898524 127.68695384 105.15536424 127.65258789 94.76171875 C127.62264106 85.70025742 127.60332069 76.63884564 127.59664077 67.57733619 C127.59273746 62.78147679 127.58359444 57.98575911 127.56171608 53.18994522 C127.54126742 48.67066984 127.53508932 44.15159379 127.53958321 39.63227654 C127.53876174 37.97875699 127.53284619 36.32523039 127.52128983 34.67175102 C127.44603486 23.3431809 127.68791978 13.04118079 135.12890625 3.8515625 C140.52860633 -1.57224339 146.34086844 -4.04662817 153.94140625 -4.21875 C162.06597782 -4.12837657 168.52032859 -2.33414411 174.69140625 3.09375 C184.79225687 14.9144184 183.577128 28.49190103 183.47827148 43.1706543 C183.48013734 45.61099497 183.48417784 48.05133479 183.49021912 50.4916687 C183.49913469 56.40877851 183.48502618 62.32556344 183.46008085 68.24260219 C183.4320277 75.14286054 183.43080744 82.0430481 183.43063784 88.94335399 C183.42945296 101.25861767 183.40455078 113.57371756 183.3659668 125.88891602 C183.32860289 137.82252975 183.30736913 149.75602446 183.30444336 161.68969727 C183.30426055 162.42521785 183.30407774 163.16073844 183.30388939 163.91854753 C183.30371042 164.65283347 183.30353145 165.38711941 183.30334705 166.14365643 C183.30298162 167.62230694 183.30260924 169.10095746 183.30222988 170.57960796 C183.30195161 171.67359954 183.30195161 171.67359954 183.30166772 172.78969197 C183.29809293 184.18810018 183.27964153 195.58649018 183.25973664 206.98487979 C183.2527301 211.1068443 183.24793822 215.22880449 183.24477529 219.35077365 C183.23924014 226.50100963 183.22351138 233.65115044 183.19658852 240.80134201 C183.18916156 243.17286046 183.18507743 245.54439213 183.18460846 247.91592216 C183.18334632 251.15712439 183.16976605 254.39805164 183.15306091 257.63920593 C183.155476 258.57365105 183.15789108 259.50809616 183.16037935 260.4708578 C183.0680886 271.93778529 180.4514132 281.36695885 172.21484375 289.796875 C163.61167175 296.56524728 152.37979407 297.22158258 141.87890625 296.09375 C126.64261976 292.33461853 118.08668363 280.51116399 109.87890625 268.09375 C109.37987793 267.34125977 108.88084961 266.58876953 108.36669922 265.81347656 C97.13132753 248.80989896 86.3737398 231.49737742 75.58642578 214.20800781 C70.81677805 206.57220119 65.9929828 198.97229415 61.14892578 191.38354492 C56.21088965 183.6381361 51.34369803 175.8496428 46.484375 168.0546875 C41.75630582 160.47803006 36.97257856 152.93841615 32.16601562 145.41137695 C27.06291057 137.40924011 22.03322654 129.36210136 17.02734375 121.29882812 C16.14949219 119.88827148 16.14949219 119.88827148 15.25390625 118.44921875 C14.74601562 117.63090576 14.238125 116.81259277 13.71484375 115.96948242 C12.09341961 113.42975437 10.43752128 110.91964244 8.76416016 108.41401672 C8.22385162 107.60465322 7.68354309 106.79528971 7.12686157 105.96140003 C6.50912369 105.03691327 6.50912369 105.03691327 5.87890625 104.09375 C5.87743969 104.91482774 5.87597313 105.73590548 5.87446213 106.58186436 C5.83731392 126.61571064 5.77819346 146.64938883 5.69500351 166.68309879 C5.6552952 176.3714988 5.62286117 186.05981855 5.60791016 195.74829102 C5.59485092 204.19864764 5.56777801 212.64882706 5.52429318 221.09908384 C5.50177393 225.56812778 5.4859898 230.03695394 5.4870224 234.50605965 C5.4877747 238.72427474 5.46959836 242.94201015 5.43773842 247.16010094 C5.42931447 248.69699536 5.42743756 250.23394407 5.43310356 251.77085114 C5.47495081 264.8822238 4.60263147 279.26820567 -5.12109375 289.09375 C-10.63680649 294.60946274 -17.44178219 296.24130114 -25.05859375 296.59375 C-32.35561418 296.36165647 -38.01428287 294.22987042 -43.19140625 289.00390625 C-50.75746646 279.74418821 -52.27253161 270.90467394 -52.26153564 259.21429443 C-52.26450677 258.22392032 -52.26747789 257.2335462 -52.27053905 256.21316075 C-52.2792056 252.89698139 -52.28073256 249.58083822 -52.28222656 246.26464844 C-52.28685615 243.8859296 -52.291881 241.5072115 -52.29727173 239.12849426 C-52.31038341 232.66764168 -52.31687518 226.206796 -52.32128239 219.74593258 C-52.32404934 215.70850176 -52.32828749 211.67107332 -52.33278656 207.6336441 C-52.34497497 196.44552638 -52.35527548 185.25741056 -52.35866165 174.06928635 C-52.35888122 173.35388316 -52.35910078 172.63847997 -52.359327 171.9013979 C-52.35954528 171.18432873 -52.35976356 170.46725956 -52.35998845 169.72846103 C-52.36043191 168.27551699 -52.36087847 166.82257295 -52.36132812 165.36962891 C-52.36154955 164.64892563 -52.36177098 163.92822235 -52.36199912 163.18567958 C-52.36594611 151.51100779 -52.383399 139.83639844 -52.40668765 128.16175076 C-52.43042873 116.16303837 -52.44286474 104.16435729 -52.44402957 92.16562104 C-52.44494472 85.43380214 -52.4506568 78.70206466 -52.46884918 71.97026825 C-52.48533605 65.63700442 -52.48748224 59.30389495 -52.47871017 52.97061729 C-52.47794016 50.64950077 -52.48227776 48.32837593 -52.49216843 46.00728035 C-52.50490391 42.83171735 -52.49900209 39.6566998 -52.48858643 36.48114014 C-52.49664283 35.56886083 -52.50469923 34.65658153 -52.51299977 33.7166574 C-52.4360875 23.6480847 -49.69282481 14.81338168 -43.12109375 7.09375 C-31.0164777 -4.63984334 -15.25390394 -7.99331211 0 0 Z " fill="#FDFDFD" transform="translate(1117.12109375,1368.90625)"/>
<path d="M0 0 C0.67508616 -0.00367669 1.35017232 -0.00735338 2.04571563 -0.01114148 C4.30089608 -0.02212743 6.55603038 -0.02601346 8.81123352 -0.02983093 C10.4311945 -0.03609943 12.05115406 -0.04274657 13.67111206 -0.04974365 C18.9851431 -0.07074049 24.29917428 -0.08114194 29.61323547 -0.09111023 C31.44590075 -0.09515942 33.27856588 -0.09927639 35.11123085 -0.10346031 C43.72255096 -0.12250235 52.33386256 -0.13673546 60.94519967 -0.14507228 C70.87084915 -0.15484138 80.79627543 -0.18115651 90.72184628 -0.22157317 C98.40357037 -0.25177489 106.08523061 -0.266545 113.76701289 -0.26985329 C118.35044923 -0.27219912 122.93364686 -0.2810986 127.51701927 -0.30631447 C131.83205114 -0.32967138 136.14668838 -0.33379799 140.4617672 -0.32355309 C142.03950314 -0.32305946 143.61725901 -0.32932838 145.19493484 -0.34310913 C155.37532777 -0.42700981 164.27646653 0.16708396 172.60151672 6.58467102 C177.91312177 11.89627607 179.29979077 16.54863486 179.41401672 23.89717102 C179.33635542 30.99023687 177.91098817 35.55167058 173.97651672 41.39717102 C168.18582903 47.05917676 161.67641653 49.27503452 153.67176819 49.26742554 C152.5556012 49.2688002 151.4394342 49.27017487 150.28944397 49.27159119 C149.06952759 49.26799591 147.84961121 49.26440063 146.59272766 49.26069641 C144.66064453 49.26091545 144.66064453 49.26091545 142.68952942 49.26113892 C139.16093924 49.26142579 135.63238306 49.25554685 132.10380077 49.24856496 C128.41491048 49.24231309 124.72601941 49.24172617 121.03712463 49.24053955 C114.05322158 49.23743165 107.06933418 49.22922554 100.08543801 49.21919006 C90.64700581 49.20592199 81.20856933 49.20052465 71.77013016 49.19468784 C56.90141395 49.1852853 42.03273079 49.16536276 27.16401672 49.14717102 C27.16401672 70.92717102 27.16401672 92.70717102 27.16401672 115.14717102 C35.8548761 115.10076477 44.54573547 115.05435852 53.49995422 115.00654602 C59.71591931 114.98350036 65.93185217 114.96299692 72.14783287 114.94615555 C80.19385127 114.92401833 88.23970319 114.89594509 96.28559875 114.84541321 C102.6574375 114.80541441 109.02915043 114.77970732 115.40111125 114.77081704 C118.77183723 114.76562418 122.14220344 114.75350953 125.51281357 114.72425079 C129.28527176 114.69510486 133.05699093 114.69121989 136.82954407 114.69306946 C137.93438141 114.67868835 139.03921875 114.66430725 140.17753601 114.64949036 C149.14362334 114.69688313 157.6193301 116.6024844 164.16401672 123.14717102 C168.88439617 129.89057023 168.98456656 137.11684625 168.16401672 145.14717102 C166.28510886 151.00219097 163.59566807 156.00888357 158.16401672 159.14717102 C150.6672988 162.90236007 144.23490836 163.71040972 135.92134094 163.60127258 C134.73969864 163.60185669 133.55805634 163.6024408 132.34060669 163.6030426 C128.46633192 163.6002739 124.59284326 163.56923774 120.71870422 163.53779602 C118.02015108 163.52809461 115.32159868 163.52444146 112.62303162 163.52064514 C106.266065 163.50826274 99.90937686 163.47550623 93.55253232 163.43524718 C85.59755993 163.38597138 77.64254137 163.36421611 69.68745422 163.34248352 C55.51275869 163.30363912 41.33866992 163.22349281 27.16401672 163.14717102 C27.16401672 188.55717102 27.16401672 213.96717102 27.16401672 240.14717102 C41.69884094 240.07756165 41.69884094 240.07756165 56.52729797 240.00654602 C62.67508872 239.98610195 68.82285473 239.96667983 74.97065735 239.95185852 C84.72342883 239.92815691 94.47606172 239.90034762 104.22871399 239.84541321 C111.33266424 239.80541755 118.43650166 239.77970803 125.54056138 239.77081704 C129.29862996 239.7656237 133.0563759 239.75350552 136.81434059 239.72425079 C140.35942455 239.69687973 143.90405632 239.68876913 147.44923592 239.6947403 C149.35443551 239.6931339 151.25958708 239.67172544 153.16465759 239.64949036 C162.45843035 239.69356594 170.97653204 241.0406134 178.16401672 247.33467102 C183.32097227 253.14706696 184.7764491 260.0264233 184.51557922 267.66279602 C183.54336927 274.53307967 180.0636131 280.35892911 175.16401672 285.14717102 C168.69453192 289.24977114 162.836259 290.2691594 155.21414185 290.28761292 C154.52680503 290.29058404 153.83946822 290.29355516 153.13130301 290.29661632 C150.83465932 290.30526816 148.53806798 290.30680858 146.2414093 290.30830383 C144.59189239 290.31293454 142.94237655 290.31795954 141.29286194 290.323349 C136.81535705 290.33645171 132.33786714 290.34291394 127.86034608 290.34735966 C125.06031421 290.35029417 122.2602864 290.35439972 119.46025658 290.35886383 C110.69195666 290.37253393 101.92366606 290.38220264 93.15535623 290.38606572 C83.04806686 290.39054367 72.94091292 290.40808141 62.83366472 290.43706632 C55.01181349 290.45871531 47.19000027 290.46877174 39.36811942 290.47010684 C34.70089391 290.47115268 30.03379579 290.47701312 25.36660194 290.49492645 C20.97282407 290.51146257 16.57926858 290.51353588 12.18547058 290.50478745 C10.57871592 290.50402 8.97194903 290.50832101 7.36522484 290.5182457 C-4.90509124 290.58955411 -15.07255507 289.90670765 -24.64848328 281.56904602 C-33.53687077 272.75472843 -33.15588279 260.43681191 -33.24655259 248.69669747 C-33.25394794 245.49441126 -33.24717577 242.29232648 -33.24003601 239.09004211 C-33.24574623 236.77102328 -33.252713 234.45200725 -33.26083374 232.13299561 C-33.27870427 225.86665688 -33.27760871 219.60045866 -33.27189136 213.33410215 C-33.26879187 208.09291924 -33.27490013 202.85176301 -33.2809301 197.6105839 C-33.29575265 184.5392289 -33.29217865 171.4679525 -33.2800668 158.39659782 C-33.27012828 147.0657386 -33.28309187 135.73504253 -33.30700099 124.40420847 C-33.33142458 112.74086658 -33.34059321 101.07760736 -33.33434826 89.41424048 C-33.33098225 82.87753802 -33.33337089 76.34097047 -33.35059929 69.80428696 C-33.36608963 63.65964464 -33.36208932 57.51531378 -33.34329414 51.37068367 C-33.33961468 49.12093858 -33.34269789 46.87117029 -33.35317993 44.62144661 C-33.46808403 17.91378323 -33.46808403 17.91378323 -23.89848328 7.86982727 C-16.73825166 1.88940655 -9.13855513 0.03236803 0 0 Z " fill="#FDFDFD" transform="translate(816.8359832763672,1369.8528289794922)"/>
<path d="M0 0 C0.80282842 -0.0060911 1.60565685 -0.01218221 2.43281341 -0.01845789 C5.10255235 -0.03500559 7.77181003 -0.03032392 10.44158936 -0.0255127 C12.36416618 -0.03285791 14.28673859 -0.04144546 16.20930481 -0.05117798 C21.41818757 -0.0733576 26.62691196 -0.07632634 31.83583546 -0.07443047 C36.19190039 -0.07431057 40.54793201 -0.08288254 44.90398765 -0.09120798 C55.18656379 -0.11043017 65.46905876 -0.11333055 75.75164795 -0.10656738 C86.33992992 -0.0999309 96.92786316 -0.12277801 107.51607442 -0.15988111 C116.62295 -0.19062898 125.7297137 -0.20193252 134.83664012 -0.1980443 C140.26853237 -0.19598167 145.70015331 -0.20138066 151.13199615 -0.22593689 C156.24411861 -0.24828484 161.35567646 -0.24625933 166.46780205 -0.22600937 C168.33656444 -0.22261328 170.20536544 -0.22762751 172.0740757 -0.24199295 C183.14901573 -0.32120796 194.0602095 -0.39172019 202.88638687 7.37003326 C207.78892271 12.49780981 210.71603377 17.98619715 211.07733154 25.14440918 C210.78431536 32.84487437 208.70847695 39.93792932 203.01483154 45.33190918 C193.49698334 52.37580869 184.28128764 52.95367566 172.78826904 52.78503418 C171.2779923 52.77755806 169.76770575 52.77187162 168.25741577 52.7678833 C164.3149863 52.75273451 160.37316228 52.71354854 156.43096924 52.66906738 C152.39520453 52.62787987 148.35934036 52.60982258 144.32342529 52.58972168 C136.42861864 52.54704126 128.53430076 52.47892399 120.63983154 52.39440918 C120.64351871 53.50262937 120.64720589 54.61084955 120.65100479 55.75265217 C120.73986142 82.73651436 120.80556231 109.72035754 120.84708023 136.70433521 C120.86769241 149.75366737 120.89578748 162.80290279 120.94158936 175.85217285 C120.98149807 187.22787739 121.00727413 198.60351186 121.01618552 209.97928447 C121.02139338 216.000899 121.0336061 222.02231309 121.06275177 228.0438633 C121.0899844 233.71635371 121.09826059 239.38856188 121.09226227 245.06111145 C121.09335899 247.13831811 121.1012658 249.2155346 121.11665344 251.29268456 C121.20928473 264.44657303 121.02840061 275.97238468 112.34295654 286.67565918 C106.35800179 292.71552177 98.84497791 295.65489257 90.38983154 295.83190918 C81.63835777 295.70203571 75.06426157 292.2064945 68.63983154 286.39440918 C66.90936279 283.66003418 66.90936279 283.66003418 65.45233154 280.64440918 C64.96377686 279.65956543 64.47522217 278.67472168 63.97186279 277.66003418 C61.16968668 270.79018307 60.34654588 264.64034498 60.39932251 257.30810547 C60.39761366 256.42738986 60.39590481 255.54667426 60.39414418 254.63927031 C60.39086639 251.70665404 60.40182467 248.77426977 60.41278076 245.8416748 C60.41334525 243.73214727 60.41302759 241.62261935 60.41189575 239.51309204 C60.41132269 233.79883741 60.42306953 228.08466699 60.43704367 222.3704319 C60.44955874 216.394013 60.45072214 210.41759209 60.45309448 204.44116211 C60.45930696 193.12954999 60.47571466 181.81797659 60.49579346 170.50638151 C60.51815967 157.62615625 60.52914771 144.74592913 60.53918433 131.86568928 C60.56008107 105.37524112 60.59525256 78.88482732 60.63983154 52.39440918 C59.39194603 52.40440193 59.39194603 52.40440193 58.11885071 52.41459656 C50.24854852 52.47490423 42.37832482 52.52048303 34.50784397 52.5498457 C30.46230205 52.56544923 26.41695233 52.58658931 22.371521 52.62072754 C18.46169605 52.65351199 14.55205507 52.67130207 10.6421032 52.67904091 C9.15628098 52.68455039 7.67046793 52.69530845 6.18472481 52.71159935 C-4.94643953 52.82870922 -14.2355438 52.42560845 -22.62969971 44.31628418 C-28.61113851 37.67324154 -29.12719003 30.87958576 -28.73516846 22.17956543 C-27.94444466 14.19819711 -24.64109933 10.14708123 -18.75079346 4.93737793 C-12.71143761 1.03942767 -7.01830057 -0.05087283 0 0 Z " fill="#FDFDFD" transform="translate(1382.3601684570313,1369.6055908203125)"/>
<path d="M0 0 C16.6753125 -0.061875 16.6753125 -0.061875 33.6875 -0.125 C38.91339966 -0.15231201 38.91339966 -0.15231201 44.24487305 -0.18017578 C48.56604004 -0.18920898 48.56604004 -0.18920898 50.60188293 -0.19088745 C51.99549139 -0.19391806 53.38909528 -0.20086557 54.78266907 -0.21115112 C69.97114228 -0.31745022 86.97300189 -0.20882116 98.5625 11 C106.09850392 19.37679774 108.66087748 28.47302181 108.34375 39.69140625 C107.36624237 49.09991721 104.16293604 56.72696029 97 63 C78.47848016 77.17879875 52.29819384 74.37909481 30.375 74.1875 C15.339375 74.0946875 15.339375 74.0946875 0 74 C0 49.58 0 25.16 0 0 Z " fill="#010101" transform="translate(543,1418)"/>
<path d="M0 0 C0.33 0 0.66 0 1 0 C1 35.64 1 71.28 1 108 C-34.64 108 -70.28 108 -107 108 C-103.02789974 106.01394987 -100.28314741 105.47119935 -95.9375 104.8125 C-75.99714487 101.36448026 -57.1869336 92.34373312 -42 79 C-41.19433594 78.33742188 -40.38867188 77.67484375 -39.55859375 76.9921875 C-29.45657205 68.42364954 -21.25156204 57.6573245 -15 46 C-14.24976563 44.61941406 -14.24976563 44.61941406 -13.484375 43.2109375 C-6.20487711 29.27694912 -2.76310079 15.34369938 0 0 Z " fill="#FBFBFB" transform="translate(1727,1812)"/>
<path d="M0 0 C1.37273678 0.1086193 2.74928691 0.17482598 4.12597656 0.20532227 C4.92650452 0.22526749 5.72703247 0.24521271 6.55181885 0.26576233 C7.83327789 0.29083107 7.83327789 0.29083107 9.140625 0.31640625 C10.02280701 0.33718735 10.90498901 0.35796844 11.81390381 0.37937927 C14.62585831 0.44464867 17.43790445 0.50365447 20.25 0.5625 C22.15886356 0.60570673 24.06771793 0.64932171 25.9765625 0.69335938 C30.65094826 0.80030687 35.32542602 0.90163785 40 1 C40 1.33 40 1.66 40 2 C22.18 2 4.36 2 -14 2 C-14 1.67 -14 1.34 -14 1 C-12.41913952 0.63495397 -10.83516093 0.28339494 -9.25 -0.0625 C-8.36828125 -0.25972656 -7.4865625 -0.45695312 -6.578125 -0.66015625 C-3.91861114 -1.01072853 -2.55386841 -0.65051049 0 0 Z " fill="#252525" transform="translate(584,1368)"/>
<path d="M0 0 C-0.33 0.66 -0.66 1.32 -1 2 C-5.29 2 -9.58 2 -14 2 C-14 1.67 -14 1.34 -14 1 C-12.41913952 0.63495397 -10.83516093 0.28339494 -9.25 -0.0625 C-8.36828125 -0.25972656 -7.4865625 -0.45695312 -6.578125 -0.66015625 C-4.01320972 -0.99825872 -2.42908361 -0.81158635 0 0 Z " fill="#313131" transform="translate(584,1368)"/>
<path d="M0 0 C0.66 0.99 1.32 1.98 2 3 C-1.3 5.97 -4.6 8.94 -8 12 C-8.66 11.67 -9.32 11.34 -10 11 C-9.44570312 10.45730469 -8.89140625 9.91460938 -8.3203125 9.35546875 C-7.23363281 8.28232422 -7.23363281 8.28232422 -6.125 7.1875 C-5.40570313 6.47980469 -4.68640625 5.77210938 -3.9453125 5.04296875 C-1.84641063 2.95600806 -1.84641063 2.95600806 0 0 Z " fill="#242424" transform="translate(150,569)"/>
<path d="M0 0 C0.625 1.875 0.625 1.875 1 4 C0.34 4.66 -0.32 5.32 -1 6 C-3 4.625 -3 4.625 -5 3 C-5 2.34 -5 1.68 -5 1 C-2 0 -2 0 0 0 Z " fill="#2B2B2B" transform="translate(651,1528)"/>
<path d="M0 0 C2 3 2 3 1.625 5.1875 C1.41875 5.785625 1.2125 6.38375 1 7 C1 6.01 1 5.02 1 4 C-0.65 4.66 -2.3 5.32 -4 6 C-2.68 4.02 -1.36 2.04 0 0 Z " fill="#414141" transform="translate(98,1324)"/>
</svg>
